<svg class="diagram-root" style="background: #fafafa;" xmlns="http://www.w3.org/2000/svg" xmlns:xlink="http://www.w3.org/1999/xlink" viewBox="0 0 1780 740">
    <style>
        .diagram-root {
            font-family: "Helvetica Neue", sans-serif;
            font-size: 12px;
        }
        .t {
            overflow: visible;
        }
        .t-bg {
            y: 40;
            fill: #fff;
        }
        .th {
            fill: #005aa0;
        }
        .tht {###################################################################################

            fill: #fff;
            font-size: 14px;
        }
        .tf {
            fill: #323c46;
            overflow: visible;
        }
        .tf.pk {
            fill: #005aa0;
            font-weight: bold;
        }
        .tf.fk {
            font-weight: bold;
        }
        .ty {
            fill: #adb1b5;
            font-weight: normal;
            text-anchor: end;
        }
        .r {
            fill: transparent;
            stroke: #c3c3c3;
            stroke-width: 1;
        }
        .l {
            stroke: 1;
        }
        .i {
            fill: #c2c7ce;
            stroke: #c2c7ce;
        }
        .i.ix {
            fill: #afb3b6;
            stroke: #000;
        }
        .fa {
            fill: transparent;
            overflow: visible;
        }
        .fa .bg.hover {
            fill: #f7f7f7;
        }
        .c {
            cy: 12;
            r: 4;
            stroke: #d2d2dc;
            fill: #d2d2dc;
        }
        .hr {
            fill: transparent;
            stroke: #323c46;
            stroke-opacity: 0.035;
            stroke-width: 13;
        }
        .dc {
            stroke: #fa5a3c;
            fill: #fa5a3c;
        }
        .x {
            stroke: white;
            stroke-width: 1;
        }
        .hl .th {
            fill: #1b9bff;
        }
        .hl .tht {
        }
        .fhl .bg {
            fill: #e7f4ff;
        }
        .fhls .bg {
        }
        .r.hl {
            stroke: #1b9bff;
        }
        .dim {
            opacity: 0.25;
        }
    </style>
    <g class="drawing-wrapper" transform="translate(259, -70) scale(1,1)">
        <g class="rs">
            <path d="M 170.71 157 m -1, 0 a 1,1 0 1,0 2,0 a 1,1 0 1,0 -2,0 M 170.71 157 m -0.5, 0 a 0.5,0.5 0 1,0 1,0 a 0.5,0.5 0 1,0 -1,0  M170.71 157 L170.71 157 182.71 157 M 170.71 163 m -1, 0 a 1,1 0 1,0 2,0 a 1,1 0 1,0 -2,0 M 170.71 163 m -0.5, 0 a 0.5,0.5 0 1,0 1,0 a 0.5,0.5 0 1,0 -1,0  M170.71 163 L170.71 163 177.71 157 170.71 151 M 170.71 151 m -1, 0 a 1,1 0 1,0 2,0 a 1,1 0 1,0 -2,0 M 170.71 151 m -0.5, 0 a 0.5,0.5 0 1,0 1,0 a 0.5,0.5 0 1,0 -1,0  M182.71 157 Q 218.29 157, 253.86 291 T 325 425 M 337 425 m -1, 0 a 1,1 0 1,0 2,0 a 1,1 0 1,0 -2,0 M 337 425 m -0.5, 0 a 0.5,0.5 0 1,0 1,0 a 0.5,0.5 0 1,0 -1,0  M337 425 L337 425 325 425 M331 431 L331 431 331 419" id="h3449527726" class="r"/>
            <path d="M 702.54 212.25 m -1, 0 a 1,1 0 1,0 2,0 a 1,1 0 1,0 -2,0 M 702.54 212.25 m -0.5, 0 a 0.5,0.5 0 1,0 1,0 a 0.5,0.5 0 1,0 -1,0  M702.54 212.25 L702.54 212.25 690.54 212.25 M 702.54 218.25 m -1, 0 a 1,1 0 1,0 2,0 a 1,1 0 1,0 -2,0 M 702.54 218.25 m -0.5, 0 a 0.5,0.5 0 1,0 1,0 a 0.5,0.5 0 1,0 -1,0  M702.54 218.25 L702.54 218.25 695.54 212.25 702.54 206.25 M 702.54 206.25 m -1, 0 a 1,1 0 1,0 2,0 a 1,1 0 1,0 -2,0 M 702.54 206.25 m -0.5, 0 a 0.5,0.5 0 1,0 1,0 a 0.5,0.5 0 1,0 -1,0  M690.54 212.25 Q 660.26 212.25, 629.98 318.63 T 569.42 425 M 557.42 425 m -1, 0 a 1,1 0 1,0 2,0 a 1,1 0 1,0 -2,0 M 557.42 425 m -0.5, 0 a 0.5,0.5 0 1,0 1,0 a 0.5,0.5 0 1,0 -1,0  M557.42 425 L557.42 425 569.42 425 M563.42 431 L563.42 431 563.42 419" id="h1150948276" class="r"/>
            <path d="M 897.83 262.25 m -1, 0 a 1,1 0 1,0 2,0 a 1,1 0 1,0 -2,0 M 897.83 262.25 m -0.5, 0 a 0.5,0.5 0 1,0 1,0 a 0.5,0.5 0 1,0 -1,0  M897.83 262.25 L897.83 262.25 909.83 262.25 M 897.83 268.25 m -1, 0 a 1,1 0 1,0 2,0 a 1,1 0 1,0 -2,0 M 897.83 268.25 m -0.5, 0 a 0.5,0.5 0 1,0 1,0 a 0.5,0.5 0 1,0 -1,0  M897.83 268.25 L897.83 268.25 904.83 262.25 897.83 256.25 M 897.83 256.25 m -1, 0 a 1,1 0 1,0 2,0 a 1,1 0 1,0 -2,0 M 897.83 256.25 m -0.5, 0 a 0.5,0.5 0 1,0 1,0 a 0.5,0.5 0 1,0 -1,0  M909.83 262.25 Q 942.31 262.25, 974.79 348.84 T 1039.75 435.43 M 1051.75 435.43 m -1, 0 a 1,1 0 1,0 2,0 a 1,1 0 1,0 -2,0 M 1051.75 435.43 m -0.5, 0 a 0.5,0.5 0 1,0 1,0 a 0.5,0.5 0 1,0 -1,0  M1051.75 435.43 L1051.75 435.43 1039.75 435.43 M1045.75 441.43 L1045.75 441.43 1045.75 429.43" id="h776662878" class="r"/>
            <path d="M 190.6 277.75 m -1, 0 a 1,1 0 1,0 2,0 a 1,1 0 1,0 -2,0 M 190.6 277.75 m -0.5, 0 a 0.5,0.5 0 1,0 1,0 a 0.5,0.5 0 1,0 -1,0  M190.6 277.75 L190.6 277.75 202.6 277.75 M 190.6 283.75 m -1, 0 a 1,1 0 1,0 2,0 a 1,1 0 1,0 -2,0 M 190.6 283.75 m -0.5, 0 a 0.5,0.5 0 1,0 1,0 a 0.5,0.5 0 1,0 -1,0  M190.6 283.75 L190.6 283.75 197.6 277.75 190.6 271.75 M 190.6 271.75 m -1, 0 a 1,1 0 1,0 2,0 a 1,1 0 1,0 -2,0 M 190.6 271.75 m -0.5, 0 a 0.5,0.5 0 1,0 1,0 a 0.5,0.5 0 1,0 -1,0  M202.6 277.75 Q 233.2 277.75, 263.8 351.38 T 325 425 M 337 425 m -1, 0 a 1,1 0 1,0 2,0 a 1,1 0 1,0 -2,0 M 337 425 m -0.5, 0 a 0.5,0.5 0 1,0 1,0 a 0.5,0.5 0 1,0 -1,0  M337 425 L337 425 325 425 M331 431 L331 431 331 419" id="h2547414164" class="r"/>
            <path d="M 214.12 528 m -1, 0 a 1,1 0 1,0 2,0 a 1,1 0 1,0 -2,0 M 214.12 528 m -0.5, 0 a 0.5,0.5 0 1,0 1,0 a 0.5,0.5 0 1,0 -1,0  M214.12 528 L214.12 528 226.12 528 M 214.12 534 m -1, 0 a 1,1 0 1,0 2,0 a 1,1 0 1,0 -2,0 M 214.12 534 m -0.5, 0 a 0.5,0.5 0 1,0 1,0 a 0.5,0.5 0 1,0 -1,0  M214.12 534 L214.12 534 221.12 528 214.12 522 M 214.12 522 m -1, 0 a 1,1 0 1,0 2,0 a 1,1 0 1,0 -2,0 M 214.12 522 m -0.5, 0 a 0.5,0.5 0 1,0 1,0 a 0.5,0.5 0 1,0 -1,0  M226.12 528 Q 250.84 528, 275.56 476.5 T 325 425 M 337 425 m -1, 0 a 1,1 0 1,0 2,0 a 1,1 0 1,0 -2,0 M 337 425 m -0.5, 0 a 0.5,0.5 0 1,0 1,0 a 0.5,0.5 0 1,0 -1,0  M337 425 L337 425 325 425 M331 431 L331 431 331 419" id="h1612780582" class="r"/>
            <path d="M 212.37 683.75 m -1, 0 a 1,1 0 1,0 2,0 a 1,1 0 1,0 -2,0 M 212.37 683.75 m -0.5, 0 a 0.5,0.5 0 1,0 1,0 a 0.5,0.5 0 1,0 -1,0  M212.37 683.75 L212.37 683.75 224.37 683.75 M 212.37 689.75 m -1, 0 a 1,1 0 1,0 2,0 a 1,1 0 1,0 -2,0 M 212.37 689.75 m -0.5, 0 a 0.5,0.5 0 1,0 1,0 a 0.5,0.5 0 1,0 -1,0  M212.37 689.75 L212.37 689.75 219.37 683.75 212.37 677.75 M 212.37 677.75 m -1, 0 a 1,1 0 1,0 2,0 a 1,1 0 1,0 -2,0 M 212.37 677.75 m -0.5, 0 a 0.5,0.5 0 1,0 1,0 a 0.5,0.5 0 1,0 -1,0  M224.37 683.75 Q 249.53 683.75, 274.69 554.38 T 325 425 M 337 425 m -1, 0 a 1,1 0 1,0 2,0 a 1,1 0 1,0 -2,0 M 337 425 m -0.5, 0 a 0.5,0.5 0 1,0 1,0 a 0.5,0.5 0 1,0 -1,0  M337 425 L337 425 325 425 M331 431 L331 431 331 419" id="h1365594352" class="r"/>
            <path d="M 212.37 708.75 m -1, 0 a 1,1 0 1,0 2,0 a 1,1 0 1,0 -2,0 M 212.37 708.75 m -0.5, 0 a 0.5,0.5 0 1,0 1,0 a 0.5,0.5 0 1,0 -1,0  M212.37 708.75 L212.37 708.75 224.37 708.75 M 212.37 714.75 m -1, 0 a 1,1 0 1,0 2,0 a 1,1 0 1,0 -2,0 M 212.37 714.75 m -0.5, 0 a 0.5,0.5 0 1,0 1,0 a 0.5,0.5 0 1,0 -1,0  M212.37 714.75 L212.37 714.75 219.37 708.75 212.37 702.75 M 212.37 702.75 m -1, 0 a 1,1 0 1,0 2,0 a 1,1 0 1,0 -2,0 M 212.37 702.75 m -0.5, 0 a 0.5,0.5 0 1,0 1,0 a 0.5,0.5 0 1,0 -1,0  M224.37 708.75 Q 249.53 708.75, 274.69 566.88 T 325 425 M 337 425 m -1, 0 a 1,1 0 1,0 2,0 a 1,1 0 1,0 -2,0 M 337 425 m -0.5, 0 a 0.5,0.5 0 1,0 1,0 a 0.5,0.5 0 1,0 -1,0  M337 425 L337 425 325 425 M331 431 L331 431 331 419" id="h3320604827" class="r"/>
            <path d="M 1313.79 434.36 m -1, 0 a 1,1 0 1,0 2,0 a 1,1 0 1,0 -2,0 M 1313.79 434.36 m -0.5, 0 a 0.5,0.5 0 1,0 1,0 a 0.5,0.5 0 1,0 -1,0  M1313.79 434.36 L1313.79 434.36 1301.79 434.36 M 1313.79 440.36 m -1, 0 a 1,1 0 1,0 2,0 a 1,1 0 1,0 -2,0 M 1313.79 440.36 m -0.5, 0 a 0.5,0.5 0 1,0 1,0 a 0.5,0.5 0 1,0 -1,0  M1313.79 440.36 L1313.79 440.36 1306.79 434.36 1313.79 428.36 M 1313.79 428.36 m -1, 0 a 1,1 0 1,0 2,0 a 1,1 0 1,0 -2,0 M 1313.79 428.36 m -0.5, 0 a 0.5,0.5 0 1,0 1,0 a 0.5,0.5 0 1,0 -1,0  M1301.79 434.36 Q 1285.52 434.36, 1269.25 434.9 T 1236.71 435.43 M 1224.71 435.43 m -1, 0 a 1,1 0 1,0 2,0 a 1,1 0 1,0 -2,0 M 1224.71 435.43 m -0.5, 0 a 0.5,0.5 0 1,0 1,0 a 0.5,0.5 0 1,0 -1,0  M1224.71 435.43 L1224.71 435.43 1236.71 435.43 M1230.71 441.43 L1230.71 441.43 1230.71 429.43" id="h466761649" class="r"/>
            <path d="M 889.71 443 m -1, 0 a 1,1 0 1,0 2,0 a 1,1 0 1,0 -2,0 M 889.71 443 m -0.5, 0 a 0.5,0.5 0 1,0 1,0 a 0.5,0.5 0 1,0 -1,0  M889.71 443 L889.71 443 901.71 443 M 889.71 449 m -1, 0 a 1,1 0 1,0 2,0 a 1,1 0 1,0 -2,0 M 889.71 449 m -0.5, 0 a 0.5,0.5 0 1,0 1,0 a 0.5,0.5 0 1,0 -1,0  M889.71 449 L889.71 449 896.71 443 889.71 437 M 889.71 437 m -1, 0 a 1,1 0 1,0 2,0 a 1,1 0 1,0 -2,0 M 889.71 437 m -0.5, 0 a 0.5,0.5 0 1,0 1,0 a 0.5,0.5 0 1,0 -1,0  M901.71 443 Q 936.22 443, 970.73 439.22 T 1039.75 435.43 M 1051.75 435.43 m -1, 0 a 1,1 0 1,0 2,0 a 1,1 0 1,0 -2,0 M 1051.75 435.43 m -0.5, 0 a 0.5,0.5 0 1,0 1,0 a 0.5,0.5 0 1,0 -1,0  M1051.75 435.43 L1051.75 435.43 1039.75 435.43 M1045.75 441.43 L1045.75 441.43 1045.75 429.43" id="h3759938968" class="r"/>
            <path d="M 712 468 m -1, 0 a 1,1 0 1,0 2,0 a 1,1 0 1,0 -2,0 M 712 468 m -0.5, 0 a 0.5,0.5 0 1,0 1,0 a 0.5,0.5 0 1,0 -1,0  M712 468 L712 468 700 468 M 712 474 m -1, 0 a 1,1 0 1,0 2,0 a 1,1 0 1,0 -2,0 M 712 474 m -0.5, 0 a 0.5,0.5 0 1,0 1,0 a 0.5,0.5 0 1,0 -1,0  M712 474 L712 474 705 468 712 462 M 712 462 m -1, 0 a 1,1 0 1,0 2,0 a 1,1 0 1,0 -2,0 M 712 462 m -0.5, 0 a 0.5,0.5 0 1,0 1,0 a 0.5,0.5 0 1,0 -1,0  M700 468 Q 667.36 468, 634.71 446.5 T 569.42 425 M 557.42 425 m -1, 0 a 1,1 0 1,0 2,0 a 1,1 0 1,0 -2,0 M 557.42 425 m -0.5, 0 a 0.5,0.5 0 1,0 1,0 a 0.5,0.5 0 1,0 -1,0  M557.42 425 L557.42 425 569.42 425 M563.42 431 L563.42 431 563.42 419" id="h3663720083" class="r"/>
            <path d="M -102.04 277 m -1, 0 a 1,1 0 1,0 2,0 a 1,1 0 1,0 -2,0 M -102.04 277 m -0.5, 0 a 0.5,0.5 0 1,0 1,0 a 0.5,0.5 0 1,0 -1,0  M-102.04 277 L-102.04 277 -90.04 277 M -102.04 283 m -1, 0 a 1,1 0 1,0 2,0 a 1,1 0 1,0 -2,0 M -102.04 283 m -0.5, 0 a 0.5,0.5 0 1,0 1,0 a 0.5,0.5 0 1,0 -1,0  M-102.04 283 L-102.04 283 -95.04 277 -102.04 271 M -102.04 271 m -1, 0 a 1,1 0 1,0 2,0 a 1,1 0 1,0 -2,0 M -102.04 271 m -0.5, 0 a 0.5,0.5 0 1,0 1,0 a 0.5,0.5 0 1,0 -1,0  M-90.04 277 Q -67.28 277, -44.52 277.38 T 1 277.75 M 13 277.75 m -1, 0 a 1,1 0 1,0 2,0 a 1,1 0 1,0 -2,0 M 13 277.75 m -0.5, 0 a 0.5,0.5 0 1,0 1,0 a 0.5,0.5 0 1,0 -1,0  M13 277.75 L13 277.75 1 277.75 M7 283.75 L7 283.75 7 271.75" id="h1238498231" class="r"/>
            <path d="M -102.04 302 m -1, 0 a 1,1 0 1,0 2,0 a 1,1 0 1,0 -2,0 M -102.04 302 m -0.5, 0 a 0.5,0.5 0 1,0 1,0 a 0.5,0.5 0 1,0 -1,0  M-102.04 302 L-102.04 302 -90.04 302 M -102.04 308 m -1, 0 a 1,1 0 1,0 2,0 a 1,1 0 1,0 -2,0 M -102.04 308 m -0.5, 0 a 0.5,0.5 0 1,0 1,0 a 0.5,0.5 0 1,0 -1,0  M-102.04 308 L-102.04 308 -95.04 302 -102.04 296 M -102.04 296 m -1, 0 a 1,1 0 1,0 2,0 a 1,1 0 1,0 -2,0 M -102.04 296 m -0.5, 0 a 0.5,0.5 0 1,0 1,0 a 0.5,0.5 0 1,0 -1,0  M-90.04 302 Q -67.28 302, -44.52 302.38 T 1 302.75 M 13 302.75 m -1, 0 a 1,1 0 1,0 2,0 a 1,1 0 1,0 -2,0 M 13 302.75 m -0.5, 0 a 0.5,0.5 0 1,0 1,0 a 0.5,0.5 0 1,0 -1,0  M13 302.75 L13 302.75 1 302.75 M7 308.75 L7 308.75 7 296.75" id="h1410538397" class="r"/>
            <path d="M 732 593 m -1, 0 a 1,1 0 1,0 2,0 a 1,1 0 1,0 -2,0 M 732 593 m -0.5, 0 a 0.5,0.5 0 1,0 1,0 a 0.5,0.5 0 1,0 -1,0  M732 593 L732 593 720 593 M 732 599 m -1, 0 a 1,1 0 1,0 2,0 a 1,1 0 1,0 -2,0 M 732 599 m -0.5, 0 a 0.5,0.5 0 1,0 1,0 a 0.5,0.5 0 1,0 -1,0  M732 599 L732 599 725 593 732 587 M 732 587 m -1, 0 a 1,1 0 1,0 2,0 a 1,1 0 1,0 -2,0 M 732 587 m -0.5, 0 a 0.5,0.5 0 1,0 1,0 a 0.5,0.5 0 1,0 -1,0  M720 593 Q 682.36 593, 644.71 509 T 569.42 425 M 557.42 425 m -1, 0 a 1,1 0 1,0 2,0 a 1,1 0 1,0 -2,0 M 557.42 425 m -0.5, 0 a 0.5,0.5 0 1,0 1,0 a 0.5,0.5 0 1,0 -1,0  M557.42 425 L557.42 425 569.42 425 M563.42 431 L563.42 431 563.42 419" id="h2227459672" class="r"/>
            <path d="M 866.71 618 m -1, 0 a 1,1 0 1,0 2,0 a 1,1 0 1,0 -2,0 M 866.71 618 m -0.5, 0 a 0.5,0.5 0 1,0 1,0 a 0.5,0.5 0 1,0 -1,0  M866.71 618 L866.71 618 878.71 618 M 866.71 624 m -1, 0 a 1,1 0 1,0 2,0 a 1,1 0 1,0 -2,0 M 866.71 624 m -0.5, 0 a 0.5,0.5 0 1,0 1,0 a 0.5,0.5 0 1,0 -1,0  M866.71 624 L866.71 624 873.71 618 866.71 612 M 866.71 612 m -1, 0 a 1,1 0 1,0 2,0 a 1,1 0 1,0 -2,0 M 866.71 612 m -0.5, 0 a 0.5,0.5 0 1,0 1,0 a 0.5,0.5 0 1,0 -1,0  M878.71 618 Q 918.97 618, 959.23 526.72 T 1039.75 435.43 M 1051.75 435.43 m -1, 0 a 1,1 0 1,0 2,0 a 1,1 0 1,0 -2,0 M 1051.75 435.43 m -0.5, 0 a 0.5,0.5 0 1,0 1,0 a 0.5,0.5 0 1,0 -1,0  M1051.75 435.43 L1051.75 435.43 1039.75 435.43 M1045.75 441.43 L1045.75 441.43 1045.75 429.43" id="h2212844806" class="r"/>
            <path d="M 735 725.67 m -1, 0 a 1,1 0 1,0 2,0 a 1,1 0 1,0 -2,0 M 735 725.67 m -0.5, 0 a 0.5,0.5 0 1,0 1,0 a 0.5,0.5 0 1,0 -1,0  M735 725.67 L735 725.67 723 725.67 M 735 731.67 m -1, 0 a 1,1 0 1,0 2,0 a 1,1 0 1,0 -2,0 M 735 731.67 m -0.5, 0 a 0.5,0.5 0 1,0 1,0 a 0.5,0.5 0 1,0 -1,0  M735 731.67 L735 731.67 728 725.67 735 719.67 M 735 719.67 m -1, 0 a 1,1 0 1,0 2,0 a 1,1 0 1,0 -2,0 M 735 719.67 m -0.5, 0 a 0.5,0.5 0 1,0 1,0 a 0.5,0.5 0 1,0 -1,0  M723 725.67 Q 684.61 725.67, 646.21 575.34 T 569.42 425 M 557.42 425 m -1, 0 a 1,1 0 1,0 2,0 a 1,1 0 1,0 -2,0 M 557.42 425 m -0.5, 0 a 0.5,0.5 0 1,0 1,0 a 0.5,0.5 0 1,0 -1,0  M557.42 425 L557.42 425 569.42 425 M563.42 431 L563.42 431 563.42 419" id="h2710908778" class="r"/>
            <path d="M 869.71 750.67 m -1, 0 a 1,1 0 1,0 2,0 a 1,1 0 1,0 -2,0 M 869.71 750.67 m -0.5, 0 a 0.5,0.5 0 1,0 1,0 a 0.5,0.5 0 1,0 -1,0  M869.71 750.67 L869.71 750.67 881.71 750.67 M 869.71 756.67 m -1, 0 a 1,1 0 1,0 2,0 a 1,1 0 1,0 -2,0 M 869.71 756.67 m -0.5, 0 a 0.5,0.5 0 1,0 1,0 a 0.5,0.5 0 1,0 -1,0  M869.71 756.67 L869.71 756.67 876.71 750.67 869.71 744.67 M 869.71 744.67 m -1, 0 a 1,1 0 1,0 2,0 a 1,1 0 1,0 -2,0 M 869.71 744.67 m -0.5, 0 a 0.5,0.5 0 1,0 1,0 a 0.5,0.5 0 1,0 -1,0  M881.71 750.67 Q 921.22 750.67, 960.73 593.05 T 1039.75 435.43 M 1051.75 435.43 m -1, 0 a 1,1 0 1,0 2,0 a 1,1 0 1,0 -2,0 M 1051.75 435.43 m -0.5, 0 a 0.5,0.5 0 1,0 1,0 a 0.5,0.5 0 1,0 -1,0  M1051.75 435.43 L1051.75 435.43 1039.75 435.43 M1045.75 441.43 L1045.75 441.43 1045.75 429.43" id="h468469909" class="r"/>
        </g>
        <g class="hrs"/>
        <g class="ts">
            <svg width="220.42" height="250" x="337" y="368" id="h2702762088" class="t">
                <rect height="40" width="220.42" class="th"/>
                <text x="13" y="25" class="tht">work_basics</text>
                <rect height="210" width="220.42" class="t-bg" y="40"/>
                <text x="13" y="61" class="tf pk">
                    id_work
                    <tspan x="207.42" class="ty">int</tspan>
                </text>
                <path d="M7,14A2,2 0 0,1 5,12A2,2 0 0,1 7,10A2,2 0 0,1 9,12A2,2 0 0,1 7,14M12.65,10C11.83,7.67 9.61,6 7, 6A6, 6 0 0, 0 1, 12A6, 6 0 0, 0 7, 18C9.61, 18 11.83, 16.33 12.65, 14H17V18H21V14H23V10H12.65Z" class="i pk" transform="translate(171.77555553436278, 48) scale(0.65)"/>
                <text x="13" y="86" class="tf">
                    worktype
                    <tspan x="207.42" class="ty">ENUM(…)</tspan>
                </text>
                <path d="M814.545 581.818v-23.273H535.273v-93.09h-46.546v93.09H209.455v139.637H256V605.09h232.727v93.09h46.546v-93.09H768v93.09h46.545V581.819zM674.91 465.455H349.091V139.636h325.818v325.819zM325.82 884.364H139.635V698.182h186.182v186.182z m279.272 0H418.909V698.182h186.182v186.182z m279.273 0H698.182V698.182h186.182v186.182zM395.636 418.909h232.728V186.182H395.636v232.727zM186.182 837.82h93.09v-93.092h-93.09v93.091z m279.273 0h93.09v-93.092h-93.09v93.091z m279.272 0h93.091v-93.092h-93.09v93.091z" class="i ix" transform="translate(135.35333435058592, 75) scale(0.014)"/>
                <text x="13" y="111" class="tf">
                    primary_title
                    <tspan x="207.42" class="ty">varchar(1000)</tspan>
                </text>
                <text x="13" y="136" class="tf">
                    original_title
                    <tspan x="207.42" class="ty">varchar(1000)</tspan>
                </text>
                <path d="M814.545 581.818v-23.273H535.273v-93.09h-46.546v93.09H209.455v139.637H256V605.09h232.727v93.09h46.546v-93.09H768v93.09h46.545V581.819zM674.91 465.455H349.091V139.636h325.818v325.819zM325.82 884.364H139.635V698.182h186.182v186.182z m279.272 0H418.909V698.182h186.182v186.182z m279.273 0H698.182V698.182h186.182v186.182zM395.636 418.909h232.728V186.182H395.636v232.727zM186.182 837.82h93.09v-93.092h-93.09v93.091z m279.273 0h93.09v-93.092h-93.09v93.091z m279.272 0h93.091v-93.092h-93.09v93.091z" class="i ix" transform="translate(106.84222595214842, 125) scale(0.014)"/>
                <text x="13" y="161" class="tf">
                    is_adult
                    <tspan x="207.42" class="ty">tinyint</tspan>
                </text>
                <text x="13" y="186" class="tf">
                    start_year
                    <tspan x="207.42" class="ty">smallint</tspan>
                </text>
                <path d="M814.545 581.818v-23.273H535.273v-93.09h-46.546v93.09H209.455v139.637H256V605.09h232.727v93.09h46.546v-93.09H768v93.09h46.545V581.819zM674.91 465.455H349.091V139.636h325.818v325.819zM325.82 884.364H139.635V698.182h186.182v186.182z m279.272 0H418.909V698.182h186.182v186.182z m279.273 0H698.182V698.182h186.182v186.182zM395.636 418.909h232.728V186.182H395.636v232.727zM186.182 837.82h93.09v-93.092h-93.09v93.091z m279.273 0h93.09v-93.092h-93.09v93.091z m279.272 0h93.091v-93.092h-93.09v93.091z" class="i ix" transform="translate(144.8200015258789, 175) scale(0.014)"/>
                <text x="13" y="211" class="tf">
                    end_year
                    <tspan x="207.42" class="ty">smallint</tspan>
                </text>
                <text x="13" y="236" class="tf">
                    runtime_minutes
                    <tspan x="207.42" class="ty">mediumint</tspan>
                </text>
                <path d="M814.545 581.818v-23.273H535.273v-93.09h-46.546v93.09H209.455v139.637H256V605.09h232.727v93.09h46.546v-93.09H768v93.09h46.545V581.819zM674.91 465.455H349.091V139.636h325.818v325.819zM325.82 884.364H139.635V698.182h186.182v186.182z m279.272 0H418.909V698.182h186.182v186.182z m279.273 0H698.182V698.182h186.182v186.182zM395.636 418.909h232.728V186.182H395.636v232.727zM186.182 837.82h93.09v-93.092h-93.09v93.091z m279.273 0h93.09v-93.092h-93.09v93.091z m279.272 0h93.091v-93.092h-93.09v93.091z" class="i ix" transform="translate(127.46444122314452, 225) scale(0.014)"/>
            </svg>
            <svg width="195.29" height="200" x="702.54" y="155.25" id="h3665322661" class="t">
                <rect height="40" width="195.29" class="th"/>
                <text x="13" y="25" class="tht">work_principals</text>
                <rect height="160" width="195.29" class="t-bg" y="40"/>
                <text x="13" y="61" class="tf pk">
                    id_work
                    <tspan x="182.29" class="ty">int</tspan>
                </text>
                <path d="M7,14A2,2 0 0,1 5,12A2,2 0 0,1 7,10A2,2 0 0,1 9,12A2,2 0 0,1 7,14M12.65,10C11.83,7.67 9.61,6 7, 6A6, 6 0 0, 0 1, 12A6, 6 0 0, 0 7, 18C9.61, 18 11.83, 16.33 12.65, 14H17V18H21V14H23V10H12.65Z" class="i pk" transform="translate(146.64555553436279, 48) scale(0.65)"/>
                <text x="13" y="86" class="tf pk">
                    ordering
                    <tspan x="182.29" class="ty">tinyint</tspan>
                </text>
                <path d="M7,14A2,2 0 0,1 5,12A2,2 0 0,1 7,10A2,2 0 0,1 9,12A2,2 0 0,1 7,14M12.65,10C11.83,7.67 9.61,6 7, 6A6, 6 0 0, 0 1, 12A6, 6 0 0, 0 7, 18C9.61, 18 11.83, 16.33 12.65, 14H17V18H21V14H23V10H12.65Z" class="i pk" transform="translate(123.88999847412109, 73) scale(0.65)"/>
                <text x="13" y="111" class="tf fk">
                    id_person
                    <tspan x="182.29" class="ty">int</tspan>
                </text>
                <path d="M814.545 581.818v-23.273H535.273v-93.09h-46.546v93.09H209.455v139.637H256V605.09h232.727v93.09h46.546v-93.09H768v93.09h46.545V581.819zM674.91 465.455H349.091V139.636h325.818v325.819zM325.82 884.364H139.635V698.182h186.182v186.182z m279.272 0H418.909V698.182h186.182v186.182z m279.273 0H698.182V698.182h186.182v186.182zM395.636 418.909h232.728V186.182H395.636v232.727zM186.182 837.82h93.09v-93.092h-93.09v93.091z m279.273 0h93.09v-93.092h-93.09v93.091z m279.272 0h93.091v-93.092h-93.09v93.091z" class="i ix" transform="translate(151.64555553436279, 100) scale(0.014)"/>
                <text x="13" y="136" class="tf">
                    category
                    <tspan x="182.29" class="ty">ENUM(…)</tspan>
                </text>
                <text x="13" y="161" class="tf">
                    job
                    <tspan x="182.29" class="ty">varchar(500)</tspan>
                </text>
                <text x="13" y="186" class="tf">
                    characters
                    <tspan x="182.29" class="ty">varchar(1400)</tspan>
                </text>
            </svg>
            <svg width="172.96" height="150" x="1051.75" y="378.43" id="h2584395415" class="t">
                <rect height="40" width="172.96" class="th"/>
                <text x="13" y="25" class="tht">name_basics</text>
                <rect height="110" width="172.96" class="t-bg" y="40"/>
                <text x="13" y="61" class="tf pk">
                    id_person
                    <tspan x="159.96" class="ty">int</tspan>
                </text>
                <path d="M7,14A2,2 0 0,1 5,12A2,2 0 0,1 7,10A2,2 0 0,1 9,12A2,2 0 0,1 7,14M12.65,10C11.83,7.67 9.61,6 7, 6A6, 6 0 0, 0 1, 12A6, 6 0 0, 0 7, 18C9.61, 18 11.83, 16.33 12.65, 14H17V18H21V14H23V10H12.65Z" class="i pk" transform="translate(124.3155555343628, 48) scale(0.65)"/>
                <text x="13" y="86" class="tf">
                    name
                    <tspan x="159.96" class="ty">varchar(200)</tspan>
                </text>
                <path d="M814.545 581.818v-23.273H535.273v-93.09h-46.546v93.09H209.455v139.637H256V605.09h232.727v93.09h46.546v-93.09H768v93.09h46.545V581.819zM674.91 465.455H349.091V139.636h325.818v325.819zM325.82 884.364H139.635V698.182h186.182v186.182z m279.272 0H418.909V698.182h186.182v186.182z m279.273 0H698.182V698.182h186.182v186.182zM395.636 418.909h232.728V186.182H395.636v232.727zM186.182 837.82h93.09v-93.092h-93.09v93.091z m279.273 0h93.09v-93.092h-93.09v93.091z m279.272 0h93.091v-93.092h-93.09v93.091z" class="i ix" transform="translate(67.02666564941407, 75) scale(0.014)"/>
                <text x="13" y="111" class="tf">
                    birth_year
                    <tspan x="159.96" class="ty">smallint</tspan>
                </text>
                <text x="13" y="136" class="tf">
                    death_year
                    <tspan x="159.96" class="ty">smallint</tspan>
                </text>
            </svg>
            <svg width="180.04" height="100" x="1313.79" y="377.36" id="h1894598041" class="t">
                <rect height="40" width="180.04" class="th"/>
                <text x="13" y="25" class="tht">name_profession</text>
                <rect height="60" width="180.04" class="t-bg" y="40"/>
                <text x="13" y="61" class="tf fk">
                    id_person
                    <tspan x="167.04" class="ty">int</tspan>
                </text>
                <path d="M814.545 581.818v-23.273H535.273v-93.09h-46.546v93.09H209.455v139.637H256V605.09h232.727v93.09h46.546v-93.09H768v93.09h46.545V581.819zM674.91 465.455H349.091V139.636h325.818v325.819zM325.82 884.364H139.635V698.182h186.182v186.182z m279.272 0H418.909V698.182h186.182v186.182z m279.273 0H698.182V698.182h186.182v186.182zM395.636 418.909h232.728V186.182H395.636v232.727zM186.182 837.82h93.09v-93.092h-93.09v93.091z m279.273 0h93.09v-93.092h-93.09v93.091z m279.272 0h93.091v-93.092h-93.09v93.091z" class="i ix" transform="translate(136.39555553436279, 50) scale(0.014)"/>
                <text x="13" y="86" class="tf">
                    profession
                    <tspan x="167.04" class="ty">ENUM(…)</tspan>
                </text>
                <path d="M814.545 581.818v-23.273H535.273v-93.09h-46.546v93.09H209.455v139.637H256V605.09h232.727v93.09h46.546v-93.09H768v93.09h46.545V581.819zM674.91 465.455H349.091V139.636h325.818v325.819zM325.82 884.364H139.635V698.182h186.182v186.182z m279.272 0H418.909V698.182h186.182v186.182z m279.273 0H698.182V698.182h186.182v186.182zM395.636 418.909h232.728V186.182H395.636v232.727zM186.182 837.82h93.09v-93.092h-93.09v93.091z m279.273 0h93.09v-93.092h-93.09v93.091z m279.272 0h93.091v-93.092h-93.09v93.091z" class="i ix" transform="translate(94.97333435058593, 75) scale(0.014)"/>
            </svg>
            <svg width="177.71" height="100" x="712" y="386" id="h1954007477" class="t">
                <rect height="40" width="177.71" class="th"/>
                <text x="13" y="25" class="tht">name_known_for_titles</text>
                <rect height="60" width="177.71" class="t-bg" y="40"/>
                <text x="13" y="61" class="tf fk">
                    id_person
                    <tspan x="164.71" class="ty">int</tspan>
                </text>
                <path d="M814.545 581.818v-23.273H535.273v-93.09h-46.546v93.09H209.455v139.637H256V605.09h232.727v93.09h46.546v-93.09H768v93.09h46.545V581.819zM674.91 465.455H349.091V139.636h325.818v325.819zM325.82 884.364H139.635V698.182h186.182v186.182z m279.272 0H418.909V698.182h186.182v186.182z m279.273 0H698.182V698.182h186.182v186.182zM395.636 418.909h232.728V186.182H395.636v232.727zM186.182 837.82h93.09v-93.092h-93.09v93.091z m279.273 0h93.09v-93.092h-93.09v93.091z m279.272 0h93.091v-93.092h-93.09v93.091z" class="i ix" transform="translate(134.0655555343628, 50) scale(0.014)"/>
                <text x="13" y="86" class="tf fk">
                    id_work
                    <tspan x="164.71" class="ty">int</tspan>
                </text>
                <path d="M814.545 581.818v-23.273H535.273v-93.09h-46.546v93.09H209.455v139.637H256V605.09h232.727v93.09h46.546v-93.09H768v93.09h46.545V581.819zM674.91 465.455H349.091V139.636h325.818v325.819zM325.82 884.364H139.635V698.182h186.182v186.182z m279.272 0H418.909V698.182h186.182v186.182z m279.273 0H698.182V698.182h186.182v186.182zM395.636 418.909h232.728V186.182H395.636v232.727zM186.182 837.82h93.09v-93.092h-93.09v93.091z m279.273 0h93.09v-93.092h-93.09v93.091z m279.272 0h93.091v-93.092h-93.09v93.091z" class="i ix" transform="translate(134.0655555343628, 75) scale(0.014)"/>
            </svg>
            <svg width="205.87" height="150" x="6.5" y="626.75" id="h461132728" class="t">
                <rect height="40" width="205.87" class="th"/>
                <text x="13" y="25" class="tht">work_episode</text>
                <rect height="110" width="205.87" class="t-bg" y="40"/>
                <text x="13" y="61" class="tf pk">
                    id_work
                    <tspan x="192.87" class="ty">int</tspan>
                </text>
                <path d="M7,14A2,2 0 0,1 5,12A2,2 0 0,1 7,10A2,2 0 0,1 9,12A2,2 0 0,1 7,14M12.65,10C11.83,7.67 9.61,6 7, 6A6, 6 0 0, 0 1, 12A6, 6 0 0, 0 7, 18C9.61, 18 11.83, 16.33 12.65, 14H17V18H21V14H23V10H12.65Z" class="i pk" transform="translate(157.2255555343628, 48) scale(0.65)"/>
                <text x="13" y="86" class="tf pk">
                    id_work_parent
                    <tspan x="192.87" class="ty">int</tspan>
                </text>
                <path d="M7,14A2,2 0 0,1 5,12A2,2 0 0,1 7,10A2,2 0 0,1 9,12A2,2 0 0,1 7,14M12.65,10C11.83,7.67 9.61,6 7, 6A6, 6 0 0, 0 1, 12A6, 6 0 0, 0 7, 18C9.61, 18 11.83, 16.33 12.65, 14H17V18H21V14H23V10H12.65Z" class="i pk" transform="translate(157.2255555343628, 73) scale(0.65)"/>
                <text x="13" y="111" class="tf">
                    season_number
                    <tspan x="192.87" class="ty">smallint</tspan>
                </text>
                <text x="13" y="136" class="tf">
                    episode_number
                    <tspan x="192.87" class="ty">mediumint</tspan>
                </text>
            </svg>
            <svg width="209.62" height="125" x="4.5" y="471" id="h4288110008" class="t">
                <rect height="40" width="209.62" class="th"/>
                <text x="13" y="25" class="tht">work_ratings</text>
                <rect height="85" width="209.62" class="t-bg" y="40"/>
                <text x="13" y="61" class="tf pk">
                    id_work
                    <tspan x="196.62" class="ty">int</tspan>
                </text>
                <path d="M7,14A2,2 0 0,1 5,12A2,2 0 0,1 7,10A2,2 0 0,1 9,12A2,2 0 0,1 7,14M12.65,10C11.83,7.67 9.61,6 7, 6A6, 6 0 0, 0 1, 12A6, 6 0 0, 0 7, 18C9.61, 18 11.83, 16.33 12.65, 14H17V18H21V14H23V10H12.65Z" class="i pk" transform="translate(160.9755555343628, 48) scale(0.65)"/>
                <text x="13" y="86" class="tf">
                    average_rating
                    <tspan x="196.62" class="ty">decimal(3,1)</tspan>
                </text>
                <text x="13" y="111" class="tf">
                    num_votes
                    <tspan x="196.62" class="ty">int</tspan>
                </text>
            </svg>
            <svg width="177.6" height="225" x="13" y="220.75" id="h3364427200" class="t">
                <rect height="40" width="177.6" class="th"/>
                <text x="13" y="25" class="tht">work_akas</text>
                <rect height="185" width="177.6" class="t-bg" y="40"/>
                <text x="13" y="61" class="tf pk">
                    id_work
                    <tspan x="164.6" class="ty">int</tspan>
                </text>
                <path d="M7,14A2,2 0 0,1 5,12A2,2 0 0,1 7,10A2,2 0 0,1 9,12A2,2 0 0,1 7,14M12.65,10C11.83,7.67 9.61,6 7, 6A6, 6 0 0, 0 1, 12A6, 6 0 0, 0 7, 18C9.61, 18 11.83, 16.33 12.65, 14H17V18H21V14H23V10H12.65Z" class="i pk" transform="translate(128.9555555343628, 48) scale(0.65)"/>
                <text x="13" y="86" class="tf pk">
                    ordering
                    <tspan x="164.6" class="ty">tinyint</tspan>
                </text>
                <path d="M7,14A2,2 0 0,1 5,12A2,2 0 0,1 7,10A2,2 0 0,1 9,12A2,2 0 0,1 7,14M12.65,10C11.83,7.67 9.61,6 7, 6A6, 6 0 0, 0 1, 12A6, 6 0 0, 0 7, 18C9.61, 18 11.83, 16.33 12.65, 14H17V18H21V14H23V10H12.65Z" class="i pk" transform="translate(106.19999847412109, 73) scale(0.65)"/>
                <text x="13" y="111" class="tf">
                    title
                    <tspan x="164.6" class="ty">varchar(1000)</tspan>
                </text>
                <text x="13" y="136" class="tf">
                    region
                    <tspan x="164.6" class="ty">varchar(4)</tspan>
                </text>
                <text x="13" y="161" class="tf">
                    language
                    <tspan x="164.6" class="ty">varchar(3)</tspan>
                </text>
                <text x="13" y="186" class="tf">
                    attibutes
                    <tspan x="164.6" class="ty">varchar(200)</tspan>
                </text>
                <text x="13" y="211" class="tf">
                    is_original_title
                    <tspan x="164.6" class="ty">tinyint</tspan>
                </text>
            </svg>
            <svg width="152.71" height="100" x="18" y="100" id="h2789216413" class="t">
                <rect height="40" width="152.71" class="th"/>
                <text x="13" y="25" class="tht">work_genres</text>
                <rect height="60" width="152.71" class="t-bg" y="40"/>
                <text x="13" y="61" class="tf fk">
                    id_work
                    <tspan x="139.71" class="ty">int</tspan>
                </text>
                <path d="M814.545 581.818v-23.273H535.273v-93.09h-46.546v93.09H209.455v139.637H256V605.09h232.727v93.09h46.546v-93.09H768v93.09h46.545V581.819zM674.91 465.455H349.091V139.636h325.818v325.819zM325.82 884.364H139.635V698.182h186.182v186.182z m279.272 0H418.909V698.182h186.182v186.182z m279.273 0H698.182V698.182h186.182v186.182zM395.636 418.909h232.728V186.182H395.636v232.727zM186.182 837.82h93.09v-93.092h-93.09v93.091z m279.273 0h93.09v-93.092h-93.09v93.091z m279.272 0h93.091v-93.092h-93.09v93.091z" class="i ix" transform="translate(109.0655555343628, 50) scale(0.014)"/>
                <text x="13" y="86" class="tf">
                    genre
                    <tspan x="139.71" class="ty">ENUM(…)</tspan>
                </text>
                <path d="M814.545 581.818v-23.273H535.273v-93.09h-46.546v93.09H209.455v139.637H256V605.09h232.727v93.09h46.546v-93.09H768v93.09h46.545V581.819zM674.91 465.455H349.091V139.636h325.818v325.819zM325.82 884.364H139.635V698.182h186.182v186.182z m279.272 0H418.909V698.182h186.182v186.182z m279.273 0H698.182V698.182h186.182v186.182zM395.636 418.909h232.728V186.182H395.636v232.727zM186.182 837.82h93.09v-93.092h-93.09v93.091z m279.273 0h93.09v-93.092h-93.09v93.091z m279.272 0h93.091v-93.092h-93.09v93.091z" class="i ix" transform="translate(67.64333435058595, 75) scale(0.014)"/>
            </svg>
            <svg width="134.96" height="125" x="-237" y="220" id="h1752594283" class="t">
                <rect height="40" width="134.96" class="th"/>
                <text x="13" y="25" class="tht">work_types</text>
                <rect height="85" width="134.96" class="t-bg" y="40"/>
                <text x="13" y="61" class="tf fk">
                    id_work
                    <tspan x="121.96000000000001" class="ty">int</tspan>
                </text>
                <text x="13" y="86" class="tf fk">
                    ordering
                    <tspan x="121.96000000000001" class="ty">tinyint</tspan>
                </text>
                <text x="13" y="111" class="tf">
                    type
                    <tspan x="121.96000000000001" class="ty">ENUM(…)</tspan>
                </text>
            </svg>
            <svg width="134.71" height="100" x="732" y="536" id="h3846695441" class="t">
                <rect height="40" width="134.71" class="th"/>
                <text x="13" y="25" class="tht">work_director</text>
                <rect height="60" width="134.71" class="t-bg" y="40"/>
                <text x="13" y="61" class="tf fk">
                    id_work
                    <tspan x="121.71000000000001" class="ty">int</tspan>
                </text>
                <path d="M814.545 581.818v-23.273H535.273v-93.09h-46.546v93.09H209.455v139.637H256V605.09h232.727v93.09h46.546v-93.09H768v93.09h46.545V581.819zM674.91 465.455H349.091V139.636h325.818v325.819zM325.82 884.364H139.635V698.182h186.182v186.182z m279.272 0H418.909V698.182h186.182v186.182z m279.273 0H698.182V698.182h186.182v186.182zM395.636 418.909h232.728V186.182H395.636v232.727zM186.182 837.82h93.09v-93.092h-93.09v93.091z m279.273 0h93.09v-93.092h-93.09v93.091z m279.272 0h93.091v-93.092h-93.09v93.091z" class="i ix" transform="translate(91.0655555343628, 50) scale(0.014)"/>
                <text x="13" y="86" class="tf fk">
                    id_person
                    <tspan x="121.71000000000001" class="ty">int</tspan>
                </text>
                <path d="M814.545 581.818v-23.273H535.273v-93.09h-46.546v93.09H209.455v139.637H256V605.09h232.727v93.09h46.546v-93.09H768v93.09h46.545V581.819zM674.91 465.455H349.091V139.636h325.818v325.819zM325.82 884.364H139.635V698.182h186.182v186.182z m279.272 0H418.909V698.182h186.182v186.182z m279.273 0H698.182V698.182h186.182v186.182zM395.636 418.909h232.728V186.182H395.636v232.727zM186.182 837.82h93.09v-93.092h-93.09v93.091z m279.273 0h93.09v-93.092h-93.09v93.091z m279.272 0h93.091v-93.092h-93.09v93.091z" class="i ix" transform="translate(91.0655555343628, 75) scale(0.014)"/>
            </svg>
            <svg width="134.71" height="100" x="735" y="668.67" id="h747794572" class="t">
                <rect height="40" width="134.71" class="th"/>
                <text x="13" y="25" class="tht">work_writer</text>
                <rect height="60" width="134.71" class="t-bg" y="40"/>
                <text x="13" y="61" class="tf fk">
                    id_work
                    <tspan x="121.71000000000001" class="ty">int</tspan>
                </text>
                <path d="M814.545 581.818v-23.273H535.273v-93.09h-46.546v93.09H209.455v139.637H256V605.09h232.727v93.09h46.546v-93.09H768v93.09h46.545V581.819zM674.91 465.455H349.091V139.636h325.818v325.819zM325.82 884.364H139.635V698.182h186.182v186.182z m279.272 0H418.909V698.182h186.182v186.182z m279.273 0H698.182V698.182h186.182v186.182zM395.636 418.909h232.728V186.182H395.636v232.727zM186.182 837.82h93.09v-93.092h-93.09v93.091z m279.273 0h93.09v-93.092h-93.09v93.091z m279.272 0h93.091v-93.092h-93.09v93.091z" class="i ix" transform="translate(91.0655555343628, 50) scale(0.014)"/>
                <text x="13" y="86" class="tf fk">
                    id_person
                    <tspan x="121.71000000000001" class="ty">int</tspan>
                </text>
                <path d="M814.545 581.818v-23.273H535.273v-93.09h-46.546v93.09H209.455v139.637H256V605.09h232.727v93.09h46.546v-93.09H768v93.09h46.545V581.819zM674.91 465.455H349.091V139.636h325.818v325.819zM325.82 884.364H139.635V698.182h186.182v186.182z m279.272 0H418.909V698.182h186.182v186.182z m279.273 0H698.182V698.182h186.182v186.182zM395.636 418.909h232.728V186.182H395.636v232.727zM186.182 837.82h93.09v-93.092h-93.09v93.091z m279.273 0h93.09v-93.092h-93.09v93.091z m279.272 0h93.091v-93.092h-93.09v93.091z" class="i ix" transform="translate(91.0655555343628, 75) scale(0.014)"/>
            </svg>
        </g>
    </g>
</svg>